<?xml version="1.0" standalone="no"?>
<!DOCTYPE svg PUBLIC "-//W3C//DTD SVG 20010904//EN"
 "http://www.w3.org/TR/2001/REC-SVG-20010904/DTD/svg10.dtd">
<svg version="1.0" xmlns="http://www.w3.org/2000/svg"
 width="866.000000pt" height="866.000000pt" viewBox="0 0 866.000000 866.000000"
 preserveAspectRatio="xMidYMid meet">
<metadata>
Created by potrace 1.14, written by Peter Selinger 2001-2017
</metadata>
<g transform="translate(0.000000,866.000000) scale(0.100000,-0.100000)"
fill="#000000" stroke="none">
<path d="M4764 6710 c-298 -78 -435 -315 -369 -636 51 -244 185 -392 580 -638
77 -48 147 -92 156 -98 17 -12 36 -3 238 115 l93 55 -58 46 c-33 26 -156 111
-274 190 -303 203 -371 270 -406 398 -29 110 -6 188 68 231 125 73 233 23 287
-134 11 -30 21 -68 24 -85 20 -130 173 -197 268 -117 64 54 72 107 39 250 -51
218 -177 370 -348 423 -82 25 -202 25 -298 0z"/>
<path d="M3813 5704 c-445 -61 -780 -382 -874 -839 -23 -110 -17 -355 12 -483
21 -95 107 -302 125 -302 4 0 32 15 63 34 71 43 157 92 197 113 l32 16 -30 65
c-135 299 -78 664 138 878 129 129 281 192 474 199 169 6 303 -30 428 -116
124 -84 225 -232 257 -377 18 -78 20 -84 64 -174 155 -317 613 -376 879 -112
114 113 160 239 149 406 -3 46 -7 90 -10 98 -21 79 -33 113 -58 162 l-29 58
-56 -32 c-31 -17 -93 -53 -138 -80 -44 -26 -85 -49 -91 -51 -5 -2 4 -32 20
-68 42 -93 42 -181 0 -240 -54 -77 -181 -118 -263 -83 -76 31 -118 90 -147
209 -10 39 -35 107 -56 153 -190 414 -607 631 -1086 566z"/>
<path d="M3373 3977 c-78 -46 -145 -86 -149 -89 -11 -12 159 -138 246 -182 97
-50 212 -88 320 -106 86 -15 261 -20 305 -9 17 4 52 10 78 14 164 22 172 244
11 300 -26 9 -77 12 -159 9 -191 -5 -323 30 -452 117 -23 16 -45 29 -50 29 -4
0 -72 -38 -150 -83z"/>
<path d="M1958 2909 c-64 -48 -53 -156 20 -186 120 -50 218 93 122 180 -38 34
-101 37 -142 6z"/>
<path d="M5150 2917 c-14 -7 -34 -30 -44 -51 -17 -36 -18 -43 -5 -80 26 -76
122 -97 186 -41 24 20 28 31 28 75 0 46 -4 55 -33 81 -36 32 -87 38 -132 16z"/>
<path d="M247 2880 c-142 -45 -218 -141 -218 -276 0 -74 27 -146 69 -182 56
-49 121 -73 290 -108 84 -17 150 -43 169 -65 34 -41 15 -112 -38 -143 -17 -10
-57 -20 -90 -23 -103 -10 -186 37 -211 120 l-11 37 -103 0 -102 0 4 -32 c28
-194 187 -303 423 -293 131 5 222 43 289 119 48 55 64 101 65 186 1 83 -18
133 -70 182 -26 25 -103 65 -141 73 -9 2 -57 12 -107 23 -190 41 -225 60 -225
124 0 68 57 108 152 108 72 0 125 -31 154 -90 l23 -45 88 -1 c48 0 94 2 100 4
29 10 -12 133 -65 193 -83 95 -295 137 -445 89z"/>
<path d="M2263 2887 c-4 -6 -7 -885 -4 -955 1 -10 24 -12 98 -10 l97 3 1 85 1
85 52 55 c43 45 55 52 62 40 5 -8 45 -71 88 -140 l79 -125 116 -3 116 -3 -91
148 c-51 81 -111 179 -135 217 l-43 70 23 25 c12 14 31 34 42 46 70 76 180
198 183 204 1 3 -47 6 -107 6 -109 -1 -110 -1 -137 -30 -161 -176 -244 -265
-248 -265 -1 0 -2 122 -1 271 0 149 -4 273 -9 276 -15 9 -177 9 -183 0z"/>
<path d="M4100 2880 c-211 -65 -323 -228 -323 -470 0 -206 79 -363 221 -438
194 -104 457 -66 580 84 40 48 76 122 87 181 l6 32 -106 -1 -107 0 -18 -41
c-36 -85 -101 -129 -192 -133 -150 -7 -245 100 -256 286 -9 161 45 273 154
321 68 31 148 27 207 -10 43 -26 70 -59 89 -106 l16 -39 106 -1 106 0 -6 35
c-10 59 -60 156 -102 198 -49 49 -111 86 -178 105 -69 20 -214 19 -284 -3z"/>
<path d="M4769 2873 c0 -29 0 -183 0 -613 l1 -340 98 0 97 0 -1 483 c-1 265
-2 484 -3 487 0 3 -44 5 -96 5 -92 0 -95 -1 -96 -22z"/>
<path d="M960 2830 c-5 -3 -10 -48 -12 -100 l-3 -95 -45 -1 c-25 -1 -51 -2
-57 -3 -9 -1 -13 -24 -13 -81 l0 -80 38 -1 c20 -1 47 0 58 0 22 2 22 0 23
-194 1 -218 8 -259 55 -303 44 -42 85 -52 205 -52 l106 0 -1 78 c-1 42 -2 80
-3 84 -1 4 -25 7 -55 7 -69 -1 -93 7 -102 34 -5 16 -8 272 -4 340 0 5 17 8 38
7 20 -1 56 -2 80 -1 l42 1 0 83 0 83 -80 -1 -80 -1 -1 30 c-1 17 0 61 0 99 1
37 -2 67 -6 68 -32 4 -175 4 -183 -1z"/>
<path d="M7519 2810 c0 -14 -1 -59 -2 -100 l-2 -75 -57 0 -58 1 0 -83 0 -83
58 0 59 0 1 -192 c1 -106 3 -202 6 -213 16 -73 57 -118 122 -134 24 -6 87 -11
141 -11 l99 0 -1 83 -1 82 -52 1 c-80 3 -101 11 -109 42 -3 15 -6 97 -6 182
l0 155 34 2 c19 1 55 2 82 2 l47 1 0 79 c0 54 -4 80 -12 83 -7 3 -43 4 -80 3
l-68 -2 -1 36 c-1 20 -1 64 -1 99 0 34 -3 62 -7 63 -3 1 -48 2 -98 3 l-93 2
-1 -26z"/>
<path d="M3266 2638 c-109 -14 -218 -85 -263 -172 -47 -91 -53 -250 -13 -346
26 -62 88 -133 140 -160 152 -78 360 -57 467 46 32 32 90 140 80 150 -2 3 -47
6 -98 6 -65 1 -94 -2 -97 -11 -18 -55 -95 -94 -167 -85 -80 9 -121 45 -143
127 l-10 37 56 1 c31 0 150 1 263 1 l206 0 0 65 c2 225 -179 372 -421 341z
m163 -175 c22 -17 59 -74 61 -94 0 -9 -309 -9 -314 0 -8 13 27 73 55 94 53 39
145 39 198 0z"/>
<path d="M5838 2645 c-2 -2 -24 -5 -50 -8 -52 -6 -126 -40 -134 -62 -10 -25
-30 -24 -32 2 -4 52 -15 58 -96 58 -41 0 -78 -4 -82 -7 -5 -6 -8 -486 -5 -676
l1 -33 98 3 97 3 1 205 c2 215 4 240 23 280 31 63 137 90 187 46 43 -37 52
-84 52 -291 1 -104 1 -202 1 -217 l1 -28 99 0 98 0 0 198 c0 272 6 297 78 342
50 31 109 23 148 -20 15 -16 28 -39 28 -50 1 -11 3 -24 4 -30 1 -5 3 -107 4
-225 l1 -215 99 0 99 0 -3 253 c-2 262 -9 308 -53 375 -19 30 -88 77 -127 86
-100 25 -229 -8 -290 -72 -17 -18 -33 -32 -36 -32 -3 0 -12 12 -19 26 -18 33
-84 72 -143 83 -26 4 -48 7 -49 6z"/>
<path d="M6998 2646 c-1 -2 -29 -6 -60 -9 -64 -6 -150 -42 -191 -81 -32 -32
-67 -97 -67 -126 0 -19 6 -20 93 -20 90 0 94 1 105 24 16 35 55 58 104 61 87
5 136 -27 145 -96 l6 -39 -94 0 c-162 -1 -239 -19 -302 -71 -48 -39 -68 -79
-74 -145 -9 -97 31 -164 122 -206 40 -18 67 -22 135 -22 100 1 142 16 200 74
23 23 40 34 40 25 0 -61 57 -95 159 -95 l71 0 0 85 c0 83 0 85 -24 85 -14 0
-28 6 -32 12 -5 7 -9 80 -9 163 -2 153 -8 201 -30 245 -34 67 -119 117 -213
126 -31 3 -62 7 -69 9 -6 2 -13 2 -15 1z m126 -453 c-15 -84 -71 -134 -155
-136 -81 -2 -126 48 -100 111 18 44 54 57 164 60 l98 4 -7 -39z"/>
<path d="M8242 2638 c-142 -16 -250 -102 -294 -233 -17 -50 -19 -187 -3 -237
29 -97 85 -172 157 -209 59 -30 155 -49 233 -44 109 6 178 36 245 107 40 42
75 124 58 134 -18 11 -182 6 -186 -6 -9 -27 -54 -67 -84 -76 -51 -16 -123 -8
-162 18 -35 23 -48 43 -65 106 -9 31 -9 32 22 33 18 0 136 1 262 2 l230 2 1
65 c1 116 -50 219 -135 277 -81 54 -170 74 -279 61z m140 -164 c29 -15 62 -57
70 -91 6 -22 5 -22 -148 -21 -85 0 -156 4 -159 8 -7 12 30 73 57 93 48 36 121
40 180 11z"/>
<path d="M1417 2629 c-9 -6 -11 -90 -9 -358 l3 -351 97 0 97 0 1 203 c1 187 2
207 22 248 29 60 68 81 150 83 l67 2 0 87 c0 51 -4 88 -10 88 -71 10 -169 -23
-204 -67 -10 -13 -21 -24 -24 -24 -3 0 -8 20 -11 45 -4 25 -10 46 -14 46 -30
5 -155 3 -165 -2z"/>
<path d="M1932 2628 c-4 -4 -6 -165 -4 -357 l3 -351 98 0 98 0 0 355 c0 195
-2 356 -6 356 -26 5 -183 3 -189 -3z"/>
<path d="M5110 2603 c-1 -18 -1 -170 -1 -338 0 -168 0 -314 1 -325 0 -19 7
-20 99 -20 l99 0 -2 357 -1 357 -97 1 -98 0 0 -32z"/>
</g>
</svg>
